<mxfile host="app.diagrams.net" modified="2024-05-16T06:39:55.001Z" agent="Mozilla/5.0 (Windows NT 10.0; Win64; x64) AppleWebKit/537.36 (KHTML, like Gecko) Chrome/122.0.0.0 YaBrowser/24.4.0.0 Safari/537.36" etag="mvP0A92v_fdMxoSfisjf" version="24.4.2" type="github">
  <diagram name="Страница — 1" id="Jsq6xCYmNxvNzVQoZNcL">
    <mxGraphModel dx="2459" dy="1100" grid="1" gridSize="10" guides="1" tooltips="1" connect="1" arrows="1" fold="1" page="1" pageScale="1" pageWidth="827" pageHeight="1169" math="0" shadow="0">
      <root>
        <mxCell id="0" />
        <mxCell id="1" parent="0" />
        <mxCell id="u6zsC0zCyDXQe2xTLqWm-1" value="робот-пылесос" style="ellipse;whiteSpace=wrap;html=1;" vertex="1" parent="1">
          <mxGeometry x="1360" y="750" width="120" height="50" as="geometry" />
        </mxCell>
        <mxCell id="u6zsC0zCyDXQe2xTLqWm-2" value="&lt;div&gt;По знанию системы&lt;/div&gt;" style="text;html=1;align=center;verticalAlign=middle;resizable=0;points=[];autosize=1;strokeColor=none;fillColor=none;" vertex="1" parent="1">
          <mxGeometry x="1070" y="275" width="130" height="30" as="geometry" />
        </mxCell>
        <mxCell id="u6zsC0zCyDXQe2xTLqWm-3" value="" style="endArrow=none;html=1;rounded=0;exitX=0;exitY=0;exitDx=0;exitDy=0;" edge="1" parent="1" source="u6zsC0zCyDXQe2xTLqWm-1">
          <mxGeometry width="50" height="50" relative="1" as="geometry">
            <mxPoint x="1100" y="440" as="sourcePoint" />
            <mxPoint x="1050" y="310" as="targetPoint" />
            <Array as="points">
              <mxPoint x="1377" y="310" />
              <mxPoint x="1210" y="310" />
            </Array>
          </mxGeometry>
        </mxCell>
        <mxCell id="u6zsC0zCyDXQe2xTLqWm-4" value="" style="endArrow=none;html=1;rounded=0;" edge="1" parent="1">
          <mxGeometry width="50" height="50" relative="1" as="geometry">
            <mxPoint x="1050" y="350" as="sourcePoint" />
            <mxPoint x="1050" y="270" as="targetPoint" />
          </mxGeometry>
        </mxCell>
        <mxCell id="u6zsC0zCyDXQe2xTLqWm-5" value="" style="endArrow=classic;html=1;rounded=0;" edge="1" parent="1">
          <mxGeometry width="50" height="50" relative="1" as="geometry">
            <mxPoint x="1050" y="270" as="sourcePoint" />
            <mxPoint x="1000" y="270" as="targetPoint" />
          </mxGeometry>
        </mxCell>
        <mxCell id="u6zsC0zCyDXQe2xTLqWm-6" value="" style="endArrow=classic;html=1;rounded=0;" edge="1" parent="1">
          <mxGeometry width="50" height="50" relative="1" as="geometry">
            <mxPoint x="1050" y="309.52" as="sourcePoint" />
            <mxPoint x="1000" y="309.52" as="targetPoint" />
          </mxGeometry>
        </mxCell>
        <mxCell id="u6zsC0zCyDXQe2xTLqWm-7" value="" style="endArrow=classic;html=1;rounded=0;" edge="1" parent="1">
          <mxGeometry width="50" height="50" relative="1" as="geometry">
            <mxPoint x="1050" y="350" as="sourcePoint" />
            <mxPoint x="1000" y="350" as="targetPoint" />
          </mxGeometry>
        </mxCell>
        <mxCell id="u6zsC0zCyDXQe2xTLqWm-8" value="Неизвестен механизм, есть только документация" style="text;html=1;align=center;verticalAlign=middle;whiteSpace=wrap;rounded=0;" vertex="1" parent="1">
          <mxGeometry x="553.75" y="243" width="350" height="50" as="geometry" />
        </mxCell>
        <mxCell id="u6zsC0zCyDXQe2xTLqWm-9" value="Известен механизм работы машины и представлена вся документация" style="text;html=1;align=center;verticalAlign=middle;whiteSpace=wrap;rounded=0;" vertex="1" parent="1">
          <mxGeometry x="480" y="283" width="403.75" height="60" as="geometry" />
        </mxCell>
        <mxCell id="u6zsC0zCyDXQe2xTLqWm-10" value="Известны внутренние механизмы и его компонентов" style="text;html=1;align=center;verticalAlign=middle;resizable=0;points=[];autosize=1;strokeColor=none;fillColor=none;" vertex="1" parent="1">
          <mxGeometry x="568.75" y="341" width="320" height="30" as="geometry" />
        </mxCell>
        <mxCell id="u6zsC0zCyDXQe2xTLqWm-11" value="" style="endArrow=none;html=1;rounded=0;exitX=0;exitY=0;exitDx=0;exitDy=0;" edge="1" parent="1" source="u6zsC0zCyDXQe2xTLqWm-1">
          <mxGeometry width="50" height="50" relative="1" as="geometry">
            <mxPoint x="1230" y="730" as="sourcePoint" />
            <mxPoint x="1050" y="450" as="targetPoint" />
            <Array as="points">
              <mxPoint x="1350" y="450" />
              <mxPoint x="1180" y="450" />
            </Array>
          </mxGeometry>
        </mxCell>
        <mxCell id="u6zsC0zCyDXQe2xTLqWm-12" value="" style="endArrow=none;html=1;rounded=0;" edge="1" parent="1">
          <mxGeometry width="50" height="50" relative="1" as="geometry">
            <mxPoint x="1050" y="470" as="sourcePoint" />
            <mxPoint x="1050" y="420" as="targetPoint" />
          </mxGeometry>
        </mxCell>
        <mxCell id="u6zsC0zCyDXQe2xTLqWm-13" value="" style="endArrow=classic;html=1;rounded=0;" edge="1" parent="1">
          <mxGeometry width="50" height="50" relative="1" as="geometry">
            <mxPoint x="1050" y="420" as="sourcePoint" />
            <mxPoint x="1010" y="420" as="targetPoint" />
          </mxGeometry>
        </mxCell>
        <mxCell id="u6zsC0zCyDXQe2xTLqWm-14" value="" style="endArrow=classic;html=1;rounded=0;" edge="1" parent="1">
          <mxGeometry width="50" height="50" relative="1" as="geometry">
            <mxPoint x="1050" y="470" as="sourcePoint" />
            <mxPoint x="1010" y="470" as="targetPoint" />
          </mxGeometry>
        </mxCell>
        <mxCell id="u6zsC0zCyDXQe2xTLqWm-15" value="По позитивности сценария" style="text;html=1;align=center;verticalAlign=middle;whiteSpace=wrap;rounded=0;" vertex="1" parent="1">
          <mxGeometry x="1060" y="410" width="110" height="40" as="geometry" />
        </mxCell>
        <mxCell id="u6zsC0zCyDXQe2xTLqWm-16" value="Двигатель запускается без проблем, машина работает бесшумно и без вибраций" style="text;html=1;align=center;verticalAlign=middle;resizable=0;points=[];autosize=1;strokeColor=none;fillColor=none;" vertex="1" parent="1">
          <mxGeometry x="540" y="410" width="480" height="30" as="geometry" />
        </mxCell>
        <mxCell id="u6zsC0zCyDXQe2xTLqWm-17" value="Попытка включить пылесос дистанционно" style="text;html=1;align=center;verticalAlign=middle;resizable=0;points=[];autosize=1;strokeColor=none;fillColor=none;" vertex="1" parent="1">
          <mxGeometry x="765" y="460" width="260" height="30" as="geometry" />
        </mxCell>
        <mxCell id="u6zsC0zCyDXQe2xTLqWm-18" value="" style="endArrow=none;html=1;rounded=0;exitX=0;exitY=0;exitDx=0;exitDy=0;" edge="1" parent="1" source="u6zsC0zCyDXQe2xTLqWm-1">
          <mxGeometry width="50" height="50" relative="1" as="geometry">
            <mxPoint x="1370" y="750" as="sourcePoint" />
            <mxPoint x="1050" y="570" as="targetPoint" />
            <Array as="points">
              <mxPoint x="1330" y="570" />
              <mxPoint x="1140" y="570" />
            </Array>
          </mxGeometry>
        </mxCell>
        <mxCell id="u6zsC0zCyDXQe2xTLqWm-19" value="По степени&amp;nbsp;&lt;div&gt;автоматизации&lt;/div&gt;" style="text;html=1;align=center;verticalAlign=middle;resizable=0;points=[];autosize=1;strokeColor=none;fillColor=none;" vertex="1" parent="1">
          <mxGeometry x="1050" y="530" width="110" height="40" as="geometry" />
        </mxCell>
        <mxCell id="u6zsC0zCyDXQe2xTLqWm-20" value="" style="endArrow=none;html=1;rounded=0;" edge="1" parent="1">
          <mxGeometry width="50" height="50" relative="1" as="geometry">
            <mxPoint x="1050" y="610" as="sourcePoint" />
            <mxPoint x="1050" y="530" as="targetPoint" />
          </mxGeometry>
        </mxCell>
        <mxCell id="u6zsC0zCyDXQe2xTLqWm-21" value="" style="endArrow=classic;html=1;rounded=0;" edge="1" parent="1">
          <mxGeometry width="50" height="50" relative="1" as="geometry">
            <mxPoint x="1050" y="530" as="sourcePoint" />
            <mxPoint x="1010" y="530" as="targetPoint" />
          </mxGeometry>
        </mxCell>
        <mxCell id="u6zsC0zCyDXQe2xTLqWm-22" value="Переключение режимов" style="text;html=1;align=center;verticalAlign=middle;whiteSpace=wrap;rounded=0;" vertex="1" parent="1">
          <mxGeometry x="840" y="520" width="160" height="20" as="geometry" />
        </mxCell>
        <mxCell id="u6zsC0zCyDXQe2xTLqWm-23" value="" style="endArrow=classic;html=1;rounded=0;" edge="1" parent="1">
          <mxGeometry width="50" height="50" relative="1" as="geometry">
            <mxPoint x="1050" y="570" as="sourcePoint" />
            <mxPoint x="1010" y="570" as="targetPoint" />
          </mxGeometry>
        </mxCell>
        <mxCell id="u6zsC0zCyDXQe2xTLqWm-24" value="" style="endArrow=classic;html=1;rounded=0;" edge="1" parent="1">
          <mxGeometry width="50" height="50" relative="1" as="geometry">
            <mxPoint x="1050" y="610" as="sourcePoint" />
            <mxPoint x="1010" y="610" as="targetPoint" />
          </mxGeometry>
        </mxCell>
        <mxCell id="u6zsC0zCyDXQe2xTLqWm-25" value="Система помощи при вычистке загрязнений при наличии препятствий" style="text;html=1;align=center;verticalAlign=middle;whiteSpace=wrap;rounded=0;" vertex="1" parent="1">
          <mxGeometry x="590" y="560" width="420" height="20" as="geometry" />
        </mxCell>
        <mxCell id="u6zsC0zCyDXQe2xTLqWm-26" value="Симуляция аварийной ситуации для активации системы автоматического торможения" style="text;html=1;align=center;verticalAlign=middle;whiteSpace=wrap;rounded=0;" vertex="1" parent="1">
          <mxGeometry x="490" y="600" width="520" height="40" as="geometry" />
        </mxCell>
        <mxCell id="u6zsC0zCyDXQe2xTLqWm-27" value="" style="endArrow=none;html=1;rounded=0;entryX=0.07;entryY=0.282;entryDx=0;entryDy=0;entryPerimeter=0;" edge="1" parent="1" target="u6zsC0zCyDXQe2xTLqWm-1">
          <mxGeometry width="50" height="50" relative="1" as="geometry">
            <mxPoint x="1050" y="730" as="sourcePoint" />
            <mxPoint x="1250" y="730" as="targetPoint" />
            <Array as="points">
              <mxPoint x="1200" y="730" />
              <mxPoint x="1360" y="730" />
            </Array>
          </mxGeometry>
        </mxCell>
        <mxCell id="u6zsC0zCyDXQe2xTLqWm-28" value="По исполнителям тестирования" style="text;html=1;align=center;verticalAlign=middle;whiteSpace=wrap;rounded=0;" vertex="1" parent="1">
          <mxGeometry x="1050" y="690" width="120" height="40" as="geometry" />
        </mxCell>
        <mxCell id="u6zsC0zCyDXQe2xTLqWm-29" value="" style="endArrow=none;html=1;rounded=0;" edge="1" parent="1">
          <mxGeometry width="50" height="50" relative="1" as="geometry">
            <mxPoint x="1050" y="730" as="sourcePoint" />
            <mxPoint x="1050" y="690" as="targetPoint" />
          </mxGeometry>
        </mxCell>
        <mxCell id="u6zsC0zCyDXQe2xTLqWm-30" value="" style="endArrow=classic;html=1;rounded=0;" edge="1" parent="1">
          <mxGeometry width="50" height="50" relative="1" as="geometry">
            <mxPoint x="1050" y="690" as="sourcePoint" />
            <mxPoint x="1010" y="690" as="targetPoint" />
          </mxGeometry>
        </mxCell>
        <mxCell id="u6zsC0zCyDXQe2xTLqWm-31" value="" style="endArrow=classic;html=1;rounded=0;" edge="1" parent="1">
          <mxGeometry width="50" height="50" relative="1" as="geometry">
            <mxPoint x="1050" y="730" as="sourcePoint" />
            <mxPoint x="1010" y="730" as="targetPoint" />
          </mxGeometry>
        </mxCell>
        <mxCell id="u6zsC0zCyDXQe2xTLqWm-32" value="Сотрудники производителя роботов-пылесосов, включая инженеров" style="text;html=1;align=center;verticalAlign=middle;whiteSpace=wrap;rounded=0;" vertex="1" parent="1">
          <mxGeometry x="690" y="670" width="320" height="30" as="geometry" />
        </mxCell>
        <mxCell id="u6zsC0zCyDXQe2xTLqWm-33" value="Представители дилерских центров и сервисных инженеров" style="text;html=1;align=center;verticalAlign=middle;whiteSpace=wrap;rounded=0;" vertex="1" parent="1">
          <mxGeometry x="700" y="720" width="300" height="30" as="geometry" />
        </mxCell>
        <mxCell id="u6zsC0zCyDXQe2xTLqWm-34" value="" style="endArrow=none;html=1;rounded=0;entryX=0;entryY=0.5;entryDx=0;entryDy=0;" edge="1" parent="1" target="u6zsC0zCyDXQe2xTLqWm-1">
          <mxGeometry width="50" height="50" relative="1" as="geometry">
            <mxPoint x="1130" y="850" as="sourcePoint" />
            <mxPoint x="1130" y="790" as="targetPoint" />
            <Array as="points">
              <mxPoint x="1360" y="850" />
            </Array>
          </mxGeometry>
        </mxCell>
        <mxCell id="u6zsC0zCyDXQe2xTLqWm-35" value="" style="endArrow=none;html=1;rounded=0;" edge="1" parent="1">
          <mxGeometry width="50" height="50" relative="1" as="geometry">
            <mxPoint x="1130" y="900" as="sourcePoint" />
            <mxPoint x="1130" y="790" as="targetPoint" />
          </mxGeometry>
        </mxCell>
        <mxCell id="u6zsC0zCyDXQe2xTLqWm-36" value="" style="endArrow=classic;html=1;rounded=0;" edge="1" parent="1">
          <mxGeometry width="50" height="50" relative="1" as="geometry">
            <mxPoint x="1130" y="790" as="sourcePoint" />
            <mxPoint x="1050" y="790" as="targetPoint" />
          </mxGeometry>
        </mxCell>
        <mxCell id="u6zsC0zCyDXQe2xTLqWm-37" value="По уровню тестирования" style="text;html=1;align=center;verticalAlign=middle;whiteSpace=wrap;rounded=0;rotation=-15;" vertex="1" parent="1">
          <mxGeometry x="1140" y="790" width="130" height="30" as="geometry" />
        </mxCell>
        <mxCell id="u6zsC0zCyDXQe2xTLqWm-38" value="Тестирование отдельных компонентов&amp;nbsp;" style="text;html=1;align=center;verticalAlign=middle;whiteSpace=wrap;rounded=0;" vertex="1" parent="1">
          <mxGeometry x="790" y="780" width="260" height="30" as="geometry" />
        </mxCell>
        <mxCell id="u6zsC0zCyDXQe2xTLqWm-39" value="" style="endArrow=classic;html=1;rounded=0;" edge="1" parent="1">
          <mxGeometry width="50" height="50" relative="1" as="geometry">
            <mxPoint x="1130" y="850" as="sourcePoint" />
            <mxPoint x="1050" y="850" as="targetPoint" />
          </mxGeometry>
        </mxCell>
        <mxCell id="u6zsC0zCyDXQe2xTLqWm-40" value="Тестирование взаимодействия различных компонентов и модулей пылесоса в совокупности" style="text;html=1;align=center;verticalAlign=middle;whiteSpace=wrap;rounded=0;" vertex="1" parent="1">
          <mxGeometry x="590" y="830" width="450" height="30" as="geometry" />
        </mxCell>
        <mxCell id="u6zsC0zCyDXQe2xTLqWm-41" value="" style="endArrow=classic;html=1;rounded=0;" edge="1" parent="1">
          <mxGeometry width="50" height="50" relative="1" as="geometry">
            <mxPoint x="1131" y="900" as="sourcePoint" />
            <mxPoint x="1051" y="900" as="targetPoint" />
          </mxGeometry>
        </mxCell>
        <mxCell id="u6zsC0zCyDXQe2xTLqWm-42" value="Полное тестирование функциональности и характеристик робота-пылесоса как единого целого" style="text;html=1;align=center;verticalAlign=middle;whiteSpace=wrap;rounded=0;" vertex="1" parent="1">
          <mxGeometry x="590" y="885" width="450" height="30" as="geometry" />
        </mxCell>
        <mxCell id="u6zsC0zCyDXQe2xTLqWm-43" value="" style="endArrow=none;html=1;rounded=0;" edge="1" parent="1">
          <mxGeometry width="50" height="50" relative="1" as="geometry">
            <mxPoint x="1200" y="990" as="sourcePoint" />
            <mxPoint x="1400" y="800" as="targetPoint" />
            <Array as="points">
              <mxPoint x="1400" y="990" />
            </Array>
          </mxGeometry>
        </mxCell>
        <mxCell id="u6zsC0zCyDXQe2xTLqWm-44" value="" style="endArrow=none;html=1;rounded=0;" edge="1" parent="1">
          <mxGeometry width="50" height="50" relative="1" as="geometry">
            <mxPoint x="1170" y="970" as="sourcePoint" />
            <mxPoint x="1230" y="1010" as="targetPoint" />
          </mxGeometry>
        </mxCell>
        <mxCell id="u6zsC0zCyDXQe2xTLqWm-45" value="По формальности" style="text;html=1;align=center;verticalAlign=middle;whiteSpace=wrap;rounded=0;rotation=-45;" vertex="1" parent="1">
          <mxGeometry x="1216.21" y="890" width="110" height="20" as="geometry" />
        </mxCell>
        <mxCell id="u6zsC0zCyDXQe2xTLqWm-46" value="" style="endArrow=classic;html=1;rounded=0;" edge="1" parent="1">
          <mxGeometry width="50" height="50" relative="1" as="geometry">
            <mxPoint x="1170" y="970" as="sourcePoint" />
            <mxPoint x="1130" y="970" as="targetPoint" />
          </mxGeometry>
        </mxCell>
        <mxCell id="u6zsC0zCyDXQe2xTLqWm-47" value="Попытка включить пылесос в различных условия&amp;nbsp;" style="text;html=1;align=center;verticalAlign=middle;whiteSpace=wrap;rounded=0;" vertex="1" parent="1">
          <mxGeometry x="910" y="960" width="220" height="30" as="geometry" />
        </mxCell>
        <mxCell id="u6zsC0zCyDXQe2xTLqWm-48" value="" style="endArrow=classic;html=1;rounded=0;" edge="1" parent="1">
          <mxGeometry width="50" height="50" relative="1" as="geometry">
            <mxPoint x="1200" y="990" as="sourcePoint" />
            <mxPoint x="1170" y="1020" as="targetPoint" />
          </mxGeometry>
        </mxCell>
        <mxCell id="u6zsC0zCyDXQe2xTLqWm-49" value="Экспериментирование с условиями покрытия для выявления реакции робота-пылесоса" style="text;html=1;align=center;verticalAlign=middle;whiteSpace=wrap;rounded=0;" vertex="1" parent="1">
          <mxGeometry x="575" y="1020" width="545" height="30" as="geometry" />
        </mxCell>
        <mxCell id="u6zsC0zCyDXQe2xTLqWm-50" value="" style="endArrow=classic;html=1;rounded=0;" edge="1" parent="1">
          <mxGeometry width="50" height="50" relative="1" as="geometry">
            <mxPoint x="1230" y="1010" as="sourcePoint" />
            <mxPoint x="1230" y="1050" as="targetPoint" />
          </mxGeometry>
        </mxCell>
        <mxCell id="u6zsC0zCyDXQe2xTLqWm-51" value="Использование новых технологий, таких как автоматическое включение с помощью таймера" style="text;html=1;align=center;verticalAlign=middle;whiteSpace=wrap;rounded=0;" vertex="1" parent="1">
          <mxGeometry x="1100" y="1060" width="260" height="30" as="geometry" />
        </mxCell>
        <mxCell id="u6zsC0zCyDXQe2xTLqWm-52" value="" style="endArrow=none;html=1;rounded=0;exitX=0.5;exitY=0;exitDx=0;exitDy=0;" edge="1" parent="1" source="u6zsC0zCyDXQe2xTLqWm-1">
          <mxGeometry width="50" height="50" relative="1" as="geometry">
            <mxPoint x="1560" y="540" as="sourcePoint" />
            <mxPoint x="1550" y="290" as="targetPoint" />
            <Array as="points">
              <mxPoint x="1430" y="290" />
            </Array>
          </mxGeometry>
        </mxCell>
        <mxCell id="u6zsC0zCyDXQe2xTLqWm-53" value="" style="endArrow=none;html=1;rounded=0;" edge="1" parent="1">
          <mxGeometry width="50" height="50" relative="1" as="geometry">
            <mxPoint x="1550" y="340" as="sourcePoint" />
            <mxPoint x="1550" y="250" as="targetPoint" />
          </mxGeometry>
        </mxCell>
        <mxCell id="u6zsC0zCyDXQe2xTLqWm-54" value="По&lt;span style=&quot;background-color: initial;&quot;&gt;&amp;nbsp;исполнению кода&lt;/span&gt;" style="text;html=1;align=center;verticalAlign=middle;whiteSpace=wrap;rounded=0;" vertex="1" parent="1">
          <mxGeometry x="1430" y="250" width="100" height="30" as="geometry" />
        </mxCell>
        <mxCell id="u6zsC0zCyDXQe2xTLqWm-55" value="" style="endArrow=none;html=1;rounded=0;" edge="1" parent="1">
          <mxGeometry width="50" height="50" relative="1" as="geometry">
            <mxPoint x="1550" y="250" as="sourcePoint" />
            <mxPoint x="1610" y="250" as="targetPoint" />
          </mxGeometry>
        </mxCell>
        <mxCell id="u6zsC0zCyDXQe2xTLqWm-56" value="" style="endArrow=none;html=1;rounded=0;" edge="1" parent="1">
          <mxGeometry width="50" height="50" relative="1" as="geometry">
            <mxPoint x="1610" y="310" as="sourcePoint" />
            <mxPoint x="1610" y="230" as="targetPoint" />
          </mxGeometry>
        </mxCell>
        <mxCell id="u6zsC0zCyDXQe2xTLqWm-57" value="" style="endArrow=classic;html=1;rounded=0;" edge="1" parent="1">
          <mxGeometry width="50" height="50" relative="1" as="geometry">
            <mxPoint x="1610" y="230" as="sourcePoint" />
            <mxPoint x="1650" y="230" as="targetPoint" />
          </mxGeometry>
        </mxCell>
        <mxCell id="u6zsC0zCyDXQe2xTLqWm-58" value="Применение специальных инструментов для анализа характеристик" style="text;html=1;align=center;verticalAlign=middle;whiteSpace=wrap;rounded=0;" vertex="1" parent="1">
          <mxGeometry x="1650" y="220" width="390" height="30" as="geometry" />
        </mxCell>
        <mxCell id="u6zsC0zCyDXQe2xTLqWm-59" value="" style="endArrow=classic;html=1;rounded=0;" edge="1" parent="1">
          <mxGeometry width="50" height="50" relative="1" as="geometry">
            <mxPoint x="1610" y="310" as="sourcePoint" />
            <mxPoint x="1650" y="310" as="targetPoint" />
          </mxGeometry>
        </mxCell>
        <mxCell id="u6zsC0zCyDXQe2xTLqWm-60" value="" style="endArrow=classic;html=1;rounded=0;" edge="1" parent="1">
          <mxGeometry width="50" height="50" relative="1" as="geometry">
            <mxPoint x="1550" y="340" as="sourcePoint" />
            <mxPoint x="1610" y="340" as="targetPoint" />
          </mxGeometry>
        </mxCell>
        <mxCell id="u6zsC0zCyDXQe2xTLqWm-61" value="Запуск тестов для проверки работы в различных условиях" style="text;html=1;align=center;verticalAlign=middle;whiteSpace=wrap;rounded=0;" vertex="1" parent="1">
          <mxGeometry x="1609" y="325" width="472" height="30" as="geometry" />
        </mxCell>
        <mxCell id="u6zsC0zCyDXQe2xTLqWm-62" value="Обсуждение с выявлением проблем" style="text;html=1;align=center;verticalAlign=middle;whiteSpace=wrap;rounded=0;" vertex="1" parent="1">
          <mxGeometry x="1650" y="295" width="230" height="30" as="geometry" />
        </mxCell>
        <mxCell id="u6zsC0zCyDXQe2xTLqWm-63" value="" style="endArrow=none;html=1;rounded=0;exitX=0.748;exitY=0.029;exitDx=0;exitDy=0;exitPerimeter=0;" edge="1" parent="1" source="u6zsC0zCyDXQe2xTLqWm-1">
          <mxGeometry width="50" height="50" relative="1" as="geometry">
            <mxPoint x="1450" y="740" as="sourcePoint" />
            <mxPoint x="1650" y="610" as="targetPoint" />
            <Array as="points">
              <mxPoint x="1450" y="610" />
              <mxPoint x="1570" y="610" />
            </Array>
          </mxGeometry>
        </mxCell>
        <mxCell id="u6zsC0zCyDXQe2xTLqWm-64" value="" style="endArrow=none;html=1;rounded=0;exitX=1;exitY=1;exitDx=0;exitDy=0;exitPerimeter=0;" edge="1" parent="1" source="u6zsC0zCyDXQe2xTLqWm-65">
          <mxGeometry width="50" height="50" relative="1" as="geometry">
            <mxPoint x="1649" y="620" as="sourcePoint" />
            <mxPoint x="1649" y="530" as="targetPoint" />
          </mxGeometry>
        </mxCell>
        <mxCell id="u6zsC0zCyDXQe2xTLqWm-65" value="По целям" style="text;html=1;align=center;verticalAlign=middle;whiteSpace=wrap;rounded=0;" vertex="1" parent="1">
          <mxGeometry x="1560" y="580" width="90" height="30" as="geometry" />
        </mxCell>
        <mxCell id="u6zsC0zCyDXQe2xTLqWm-66" value="" style="endArrow=classic;html=1;rounded=0;" edge="1" parent="1">
          <mxGeometry width="50" height="50" relative="1" as="geometry">
            <mxPoint x="1650" y="529.62" as="sourcePoint" />
            <mxPoint x="1690" y="529.62" as="targetPoint" />
          </mxGeometry>
        </mxCell>
        <mxCell id="u6zsC0zCyDXQe2xTLqWm-67" value="Убедиться в надежной и эффективной работе системы безопасности робота" style="text;html=1;align=center;verticalAlign=middle;whiteSpace=wrap;rounded=0;" vertex="1" parent="1">
          <mxGeometry x="1700" y="515" width="470" height="35" as="geometry" />
        </mxCell>
        <mxCell id="u6zsC0zCyDXQe2xTLqWm-68" value="" style="endArrow=none;html=1;rounded=0;exitX=1;exitY=1;exitDx=0;exitDy=0;" edge="1" parent="1" source="u6zsC0zCyDXQe2xTLqWm-65">
          <mxGeometry width="50" height="50" relative="1" as="geometry">
            <mxPoint x="1868" y="730" as="sourcePoint" />
            <mxPoint x="1730" y="610" as="targetPoint" />
            <Array as="points">
              <mxPoint x="1680" y="610" />
              <mxPoint x="1730" y="610" />
            </Array>
          </mxGeometry>
        </mxCell>
        <mxCell id="u6zsC0zCyDXQe2xTLqWm-69" value="" style="endArrow=none;html=1;rounded=0;" edge="1" parent="1">
          <mxGeometry width="50" height="50" relative="1" as="geometry">
            <mxPoint x="1730" y="1050" as="sourcePoint" />
            <mxPoint x="1730" y="590" as="targetPoint" />
          </mxGeometry>
        </mxCell>
        <mxCell id="u6zsC0zCyDXQe2xTLqWm-70" value="" style="endArrow=classic;html=1;rounded=0;" edge="1" parent="1">
          <mxGeometry width="50" height="50" relative="1" as="geometry">
            <mxPoint x="1730" y="590" as="sourcePoint" />
            <mxPoint x="1770" y="590" as="targetPoint" />
          </mxGeometry>
        </mxCell>
        <mxCell id="u6zsC0zCyDXQe2xTLqWm-71" value="Удобство навигации меню и функций в роботе-пылесосе" style="text;html=1;align=center;verticalAlign=middle;whiteSpace=wrap;rounded=0;" vertex="1" parent="1">
          <mxGeometry x="1780" y="580" width="350" height="30" as="geometry" />
        </mxCell>
        <mxCell id="u6zsC0zCyDXQe2xTLqWm-72" value="" style="endArrow=classic;html=1;rounded=0;" edge="1" parent="1">
          <mxGeometry width="50" height="50" relative="1" as="geometry">
            <mxPoint x="1730" y="650" as="sourcePoint" />
            <mxPoint x="1770" y="650" as="targetPoint" />
          </mxGeometry>
        </mxCell>
        <mxCell id="u6zsC0zCyDXQe2xTLqWm-73" value="Оценка уровня экономии энергии, функциональности, оптимального режима работы" style="text;html=1;align=center;verticalAlign=middle;whiteSpace=wrap;rounded=0;" vertex="1" parent="1">
          <mxGeometry x="1770" y="640" width="310" height="30" as="geometry" />
        </mxCell>
        <mxCell id="u6zsC0zCyDXQe2xTLqWm-74" value="" style="endArrow=classic;html=1;rounded=0;" edge="1" parent="1">
          <mxGeometry width="50" height="50" relative="1" as="geometry">
            <mxPoint x="1730" y="709.62" as="sourcePoint" />
            <mxPoint x="1770" y="709.62" as="targetPoint" />
          </mxGeometry>
        </mxCell>
        <mxCell id="u6zsC0zCyDXQe2xTLqWm-75" value="Проверка работы режимов" style="text;html=1;align=center;verticalAlign=middle;whiteSpace=wrap;rounded=0;" vertex="1" parent="1">
          <mxGeometry x="1780" y="695" width="180" height="30" as="geometry" />
        </mxCell>
        <mxCell id="u6zsC0zCyDXQe2xTLqWm-76" value="" style="endArrow=classic;html=1;rounded=0;" edge="1" parent="1">
          <mxGeometry width="50" height="50" relative="1" as="geometry">
            <mxPoint x="1730" y="760" as="sourcePoint" />
            <mxPoint x="1770" y="760" as="targetPoint" />
          </mxGeometry>
        </mxCell>
        <mxCell id="u6zsC0zCyDXQe2xTLqWm-77" value="Совместимость дополнительного оборудования и по" style="text;html=1;align=center;verticalAlign=middle;whiteSpace=wrap;rounded=0;" vertex="1" parent="1">
          <mxGeometry x="1770" y="740" width="310" height="40" as="geometry" />
        </mxCell>
        <mxCell id="u6zsC0zCyDXQe2xTLqWm-78" value="" style="endArrow=classic;html=1;rounded=0;" edge="1" parent="1">
          <mxGeometry width="50" height="50" relative="1" as="geometry">
            <mxPoint x="1730" y="810" as="sourcePoint" />
            <mxPoint x="1770" y="810" as="targetPoint" />
          </mxGeometry>
        </mxCell>
        <mxCell id="u6zsC0zCyDXQe2xTLqWm-79" value="Совместимость телефона, блютуз и тд с системой для дистанционного управления" style="text;html=1;align=center;verticalAlign=middle;whiteSpace=wrap;rounded=0;" vertex="1" parent="1">
          <mxGeometry x="1760" y="800" width="530" height="30" as="geometry" />
        </mxCell>
        <mxCell id="u6zsC0zCyDXQe2xTLqWm-80" value="Тестирование механизма автономного восстановления после сбоя" style="text;html=1;align=center;verticalAlign=middle;whiteSpace=wrap;rounded=0;" vertex="1" parent="1">
          <mxGeometry x="1770" y="870" width="410" height="10" as="geometry" />
        </mxCell>
        <mxCell id="u6zsC0zCyDXQe2xTLqWm-81" value="" style="endArrow=classic;html=1;rounded=0;" edge="1" parent="1">
          <mxGeometry width="50" height="50" relative="1" as="geometry">
            <mxPoint x="1730" y="870" as="sourcePoint" />
            <mxPoint x="1770" y="870" as="targetPoint" />
          </mxGeometry>
        </mxCell>
        <mxCell id="u6zsC0zCyDXQe2xTLqWm-82" value="" style="endArrow=classic;html=1;rounded=0;" edge="1" parent="1">
          <mxGeometry width="50" height="50" relative="1" as="geometry">
            <mxPoint x="1730" y="930" as="sourcePoint" />
            <mxPoint x="1770" y="930" as="targetPoint" />
          </mxGeometry>
        </mxCell>
        <mxCell id="u6zsC0zCyDXQe2xTLqWm-83" value="Отображение информации на различных языках" style="text;html=1;align=center;verticalAlign=middle;whiteSpace=wrap;rounded=0;" vertex="1" parent="1">
          <mxGeometry x="1780" y="920" width="280" height="30" as="geometry" />
        </mxCell>
        <mxCell id="u6zsC0zCyDXQe2xTLqWm-84" value="" style="endArrow=none;html=1;rounded=0;" edge="1" parent="1">
          <mxGeometry width="50" height="50" relative="1" as="geometry">
            <mxPoint x="1730" y="1050" as="sourcePoint" />
            <mxPoint x="1810" y="1050" as="targetPoint" />
          </mxGeometry>
        </mxCell>
        <mxCell id="u6zsC0zCyDXQe2xTLqWm-85" value="" style="endArrow=none;html=1;rounded=0;" edge="1" parent="1">
          <mxGeometry width="50" height="50" relative="1" as="geometry">
            <mxPoint x="1810" y="1170" as="sourcePoint" />
            <mxPoint x="1810" y="1010" as="targetPoint" />
          </mxGeometry>
        </mxCell>
        <mxCell id="u6zsC0zCyDXQe2xTLqWm-86" value="" style="endArrow=classic;html=1;rounded=0;" edge="1" parent="1">
          <mxGeometry width="50" height="50" relative="1" as="geometry">
            <mxPoint x="1810" y="1010" as="sourcePoint" />
            <mxPoint x="1850" y="1010" as="targetPoint" />
          </mxGeometry>
        </mxCell>
        <mxCell id="u6zsC0zCyDXQe2xTLqWm-87" value="Работа процессора при длительной работе" style="text;html=1;align=center;verticalAlign=middle;whiteSpace=wrap;rounded=0;" vertex="1" parent="1">
          <mxGeometry x="1850" y="1000" width="300" height="30" as="geometry" />
        </mxCell>
        <mxCell id="u6zsC0zCyDXQe2xTLqWm-88" value="" style="endArrow=classic;html=1;rounded=0;" edge="1" parent="1">
          <mxGeometry width="50" height="50" relative="1" as="geometry">
            <mxPoint x="1810" y="1050" as="sourcePoint" />
            <mxPoint x="1850" y="1050" as="targetPoint" />
          </mxGeometry>
        </mxCell>
        <mxCell id="u6zsC0zCyDXQe2xTLqWm-89" value="Испытания на шероховатой поверхности или поверхности с препятствиями" style="text;html=1;align=center;verticalAlign=middle;whiteSpace=wrap;rounded=0;" vertex="1" parent="1">
          <mxGeometry x="1850" y="1040" width="460" height="30" as="geometry" />
        </mxCell>
        <mxCell id="u6zsC0zCyDXQe2xTLqWm-90" value="" style="endArrow=classic;html=1;rounded=0;" edge="1" parent="1">
          <mxGeometry width="50" height="50" relative="1" as="geometry">
            <mxPoint x="1810" y="1090" as="sourcePoint" />
            <mxPoint x="1850" y="1090" as="targetPoint" />
          </mxGeometry>
        </mxCell>
        <mxCell id="u6zsC0zCyDXQe2xTLqWm-91" value="Проверка долговечности системы при интенсивном использовании" style="text;html=1;align=center;verticalAlign=middle;whiteSpace=wrap;rounded=0;" vertex="1" parent="1">
          <mxGeometry x="1850" y="1080" width="420" height="30" as="geometry" />
        </mxCell>
        <mxCell id="u6zsC0zCyDXQe2xTLqWm-92" value="" style="endArrow=classic;html=1;rounded=0;" edge="1" parent="1">
          <mxGeometry width="50" height="50" relative="1" as="geometry">
            <mxPoint x="1810" y="1130" as="sourcePoint" />
            <mxPoint x="1850" y="1130" as="targetPoint" />
          </mxGeometry>
        </mxCell>
        <mxCell id="u6zsC0zCyDXQe2xTLqWm-93" value="Проверка системы дистанционного управления на больших расстояниях" style="text;html=1;align=center;verticalAlign=middle;whiteSpace=wrap;rounded=0;" vertex="1" parent="1">
          <mxGeometry x="1850" y="1120" width="430" height="30" as="geometry" />
        </mxCell>
        <mxCell id="u6zsC0zCyDXQe2xTLqWm-94" value="" style="endArrow=classic;html=1;rounded=0;" edge="1" parent="1">
          <mxGeometry width="50" height="50" relative="1" as="geometry">
            <mxPoint x="1810" y="1170" as="sourcePoint" />
            <mxPoint x="1850" y="1170" as="targetPoint" />
          </mxGeometry>
        </mxCell>
        <mxCell id="u6zsC0zCyDXQe2xTLqWm-95" value="Проверка работы при увеличении количества подключенных устройств&amp;nbsp;" style="text;html=1;align=center;verticalAlign=middle;whiteSpace=wrap;rounded=0;" vertex="1" parent="1">
          <mxGeometry x="1851" y="1160" width="429" height="30" as="geometry" />
        </mxCell>
        <mxCell id="u6zsC0zCyDXQe2xTLqWm-96" value="" style="endArrow=none;html=1;rounded=0;entryX=0.417;entryY=1;entryDx=0;entryDy=0;entryPerimeter=0;" edge="1" parent="1" target="u6zsC0zCyDXQe2xTLqWm-1">
          <mxGeometry width="50" height="50" relative="1" as="geometry">
            <mxPoint x="1410" y="1130" as="sourcePoint" />
            <mxPoint x="1470" y="980" as="targetPoint" />
          </mxGeometry>
        </mxCell>
        <mxCell id="u6zsC0zCyDXQe2xTLqWm-97" value="По хронологии выполнения" style="text;html=1;align=center;verticalAlign=middle;whiteSpace=wrap;rounded=0;" vertex="1" parent="1">
          <mxGeometry x="1404" y="1080" width="100" height="30" as="geometry" />
        </mxCell>
        <mxCell id="u6zsC0zCyDXQe2xTLqWm-98" value="" style="endArrow=none;html=1;rounded=0;" edge="1" parent="1">
          <mxGeometry width="50" height="50" relative="1" as="geometry">
            <mxPoint x="1250" y="1130" as="sourcePoint" />
            <mxPoint x="1590" y="1130" as="targetPoint" />
          </mxGeometry>
        </mxCell>
        <mxCell id="u6zsC0zCyDXQe2xTLqWm-99" value="" style="endArrow=classic;html=1;rounded=0;" edge="1" parent="1">
          <mxGeometry width="50" height="50" relative="1" as="geometry">
            <mxPoint x="1250" y="1130" as="sourcePoint" />
            <mxPoint x="1250" y="1170" as="targetPoint" />
          </mxGeometry>
        </mxCell>
        <mxCell id="u6zsC0zCyDXQe2xTLqWm-100" value="Работоспособность в различных условиях" style="text;html=1;align=center;verticalAlign=middle;whiteSpace=wrap;rounded=0;" vertex="1" parent="1">
          <mxGeometry x="1180" y="1170" width="120" height="40" as="geometry" />
        </mxCell>
        <mxCell id="u6zsC0zCyDXQe2xTLqWm-101" value="" style="endArrow=classic;html=1;rounded=0;" edge="1" parent="1">
          <mxGeometry width="50" height="50" relative="1" as="geometry">
            <mxPoint x="1310" y="1130" as="sourcePoint" />
            <mxPoint x="1310" y="1230" as="targetPoint" />
          </mxGeometry>
        </mxCell>
        <mxCell id="u6zsC0zCyDXQe2xTLqWm-102" value="Соответствие документации" style="text;html=1;align=center;verticalAlign=middle;whiteSpace=wrap;rounded=0;" vertex="1" parent="1">
          <mxGeometry x="1260" y="1230" width="90" height="40" as="geometry" />
        </mxCell>
        <mxCell id="u6zsC0zCyDXQe2xTLqWm-103" value="" style="endArrow=classic;html=1;rounded=0;" edge="1" parent="1">
          <mxGeometry width="50" height="50" relative="1" as="geometry">
            <mxPoint x="1370" y="1130" as="sourcePoint" />
            <mxPoint x="1370" y="1170" as="targetPoint" />
          </mxGeometry>
        </mxCell>
        <mxCell id="u6zsC0zCyDXQe2xTLqWm-104" value="Тестирование систем безопасности&amp;nbsp;&lt;span style=&quot;background-color: initial;&quot;&gt;&amp;nbsp;&lt;/span&gt;" style="text;html=1;align=center;verticalAlign=middle;whiteSpace=wrap;rounded=0;" vertex="1" parent="1">
          <mxGeometry x="1344" y="1175" width="60" height="30" as="geometry" />
        </mxCell>
        <mxCell id="u6zsC0zCyDXQe2xTLqWm-105" value="" style="endArrow=classic;html=1;rounded=0;" edge="1" parent="1">
          <mxGeometry width="50" height="50" relative="1" as="geometry">
            <mxPoint x="1440" y="1130" as="sourcePoint" />
            <mxPoint x="1440" y="1230" as="targetPoint" />
          </mxGeometry>
        </mxCell>
        <mxCell id="u6zsC0zCyDXQe2xTLqWm-106" value="Исправление выявленных ошибок&amp;nbsp;" style="text;html=1;align=center;verticalAlign=middle;whiteSpace=wrap;rounded=0;" vertex="1" parent="1">
          <mxGeometry x="1404" y="1240" width="60" height="30" as="geometry" />
        </mxCell>
        <mxCell id="u6zsC0zCyDXQe2xTLqWm-107" value="" style="endArrow=classic;html=1;rounded=0;" edge="1" parent="1">
          <mxGeometry width="50" height="50" relative="1" as="geometry">
            <mxPoint x="1504" y="1130" as="sourcePoint" />
            <mxPoint x="1504" y="1170" as="targetPoint" />
          </mxGeometry>
        </mxCell>
        <mxCell id="u6zsC0zCyDXQe2xTLqWm-108" value="Тестирование новых изменений на старую функциональной" style="text;html=1;align=center;verticalAlign=middle;whiteSpace=wrap;rounded=0;" vertex="1" parent="1">
          <mxGeometry x="1444" y="1170" width="116" height="55" as="geometry" />
        </mxCell>
        <mxCell id="u6zsC0zCyDXQe2xTLqWm-109" value="" style="endArrow=classic;html=1;rounded=0;" edge="1" parent="1">
          <mxGeometry width="50" height="50" relative="1" as="geometry">
            <mxPoint x="1590" y="1130" as="sourcePoint" />
            <mxPoint x="1590" y="1230" as="targetPoint" />
          </mxGeometry>
        </mxCell>
        <mxCell id="u6zsC0zCyDXQe2xTLqWm-110" value="Утверждение качества и готовности робота-пылесоса" style="text;html=1;align=center;verticalAlign=middle;whiteSpace=wrap;rounded=0;" vertex="1" parent="1">
          <mxGeometry x="1540" y="1240" width="100" height="55" as="geometry" />
        </mxCell>
        <mxCell id="u6zsC0zCyDXQe2xTLqWm-111" value="" style="endArrow=none;html=1;rounded=0;exitX=0.641;exitY=-0.081;exitDx=0;exitDy=0;exitPerimeter=0;" edge="1" parent="1" source="u6zsC0zCyDXQe2xTLqWm-1">
          <mxGeometry width="50" height="50" relative="1" as="geometry">
            <mxPoint x="1560" y="980" as="sourcePoint" />
            <mxPoint x="1740" y="430" as="targetPoint" />
            <Array as="points">
              <mxPoint x="1440" y="430" />
              <mxPoint x="1600" y="430" />
            </Array>
          </mxGeometry>
        </mxCell>
        <mxCell id="u6zsC0zCyDXQe2xTLqWm-112" value="По разработке тестовых сценариев" style="text;html=1;align=center;verticalAlign=middle;whiteSpace=wrap;rounded=0;" vertex="1" parent="1">
          <mxGeometry x="1590" y="400" width="140" height="30" as="geometry" />
        </mxCell>
        <mxCell id="u6zsC0zCyDXQe2xTLqWm-113" value="" style="endArrow=none;html=1;rounded=0;" edge="1" parent="1">
          <mxGeometry width="50" height="50" relative="1" as="geometry">
            <mxPoint x="1740" y="490" as="sourcePoint" />
            <mxPoint x="1740" y="400" as="targetPoint" />
          </mxGeometry>
        </mxCell>
        <mxCell id="u6zsC0zCyDXQe2xTLqWm-114" value="" style="endArrow=classic;html=1;rounded=0;" edge="1" parent="1">
          <mxGeometry width="50" height="50" relative="1" as="geometry">
            <mxPoint x="1740" y="400" as="sourcePoint" />
            <mxPoint x="1780" y="400" as="targetPoint" />
          </mxGeometry>
        </mxCell>
        <mxCell id="u6zsC0zCyDXQe2xTLqWm-115" value="Изучение требований к роботу-пылесосу" style="text;html=1;align=center;verticalAlign=middle;whiteSpace=wrap;rounded=0;" vertex="1" parent="1">
          <mxGeometry x="1780" y="390" width="255" height="30" as="geometry" />
        </mxCell>
        <mxCell id="u6zsC0zCyDXQe2xTLqWm-116" value="" style="endArrow=classic;html=1;rounded=0;" edge="1" parent="1">
          <mxGeometry width="50" height="50" relative="1" as="geometry">
            <mxPoint x="1740" y="450" as="sourcePoint" />
            <mxPoint x="1780" y="450" as="targetPoint" />
          </mxGeometry>
        </mxCell>
        <mxCell id="u6zsC0zCyDXQe2xTLqWm-117" value="" style="endArrow=classic;html=1;rounded=0;" edge="1" parent="1">
          <mxGeometry width="50" height="50" relative="1" as="geometry">
            <mxPoint x="1740" y="489.39" as="sourcePoint" />
            <mxPoint x="1780" y="489.39" as="targetPoint" />
          </mxGeometry>
        </mxCell>
        <mxCell id="u6zsC0zCyDXQe2xTLqWm-118" value="В реальных условиях проверка работы" style="text;html=1;align=center;verticalAlign=middle;whiteSpace=wrap;rounded=0;" vertex="1" parent="1">
          <mxGeometry x="1770" y="430" width="265" height="30" as="geometry" />
        </mxCell>
        <mxCell id="u6zsC0zCyDXQe2xTLqWm-119" value="Создание модели для тестирования в виртуальной среде&amp;nbsp;" style="text;html=1;align=center;verticalAlign=middle;whiteSpace=wrap;rounded=0;" vertex="1" parent="1">
          <mxGeometry x="1785" y="480" width="365" height="35" as="geometry" />
        </mxCell>
        <mxCell id="u6zsC0zCyDXQe2xTLqWm-120" value="&lt;span style=&quot;font-family: Arial, sans-serif; font-size: 16px; text-align: start;&quot;&gt;черный ящик&lt;/span&gt;" style="text;html=1;align=center;verticalAlign=middle;whiteSpace=wrap;rounded=0;" vertex="1" parent="1">
          <mxGeometry x="883.75" y="268" width="106.25" as="geometry" />
        </mxCell>
        <mxCell id="u6zsC0zCyDXQe2xTLqWm-121" value="&lt;span style=&quot;color: rgb(0, 0, 0); font-family: Arial, sans-serif; font-size: 16px; font-style: normal; font-variant-ligatures: normal; font-variant-caps: normal; font-weight: 400; letter-spacing: normal; orphans: 2; text-align: start; text-indent: 0px; text-transform: none; widows: 2; word-spacing: 0px; -webkit-text-stroke-width: 0px; white-space: normal; text-decoration-thickness: initial; text-decoration-style: initial; text-decoration-color: initial; display: inline !important; float: none;&quot;&gt;белый ящик&lt;/span&gt;" style="text;whiteSpace=wrap;html=1;" vertex="1" parent="1">
          <mxGeometry x="901.25" y="291" width="105" height="50" as="geometry" />
        </mxCell>
        <mxCell id="u6zsC0zCyDXQe2xTLqWm-122" value="&lt;span style=&quot;color: rgb(0, 0, 0); font-family: Arial, sans-serif; font-size: 16px; font-style: normal; font-variant-ligatures: normal; font-variant-caps: normal; font-weight: 400; letter-spacing: normal; orphans: 2; text-align: start; text-indent: 0px; text-transform: none; widows: 2; word-spacing: 0px; -webkit-text-stroke-width: 0px; white-space: normal; text-decoration-thickness: initial; text-decoration-style: initial; text-decoration-color: initial; display: inline !important; float: none;&quot;&gt;серый ящик&lt;/span&gt;" style="text;whiteSpace=wrap;html=1;" vertex="1" parent="1">
          <mxGeometry x="892.5" y="336" width="107.5" height="40" as="geometry" />
        </mxCell>
        <mxCell id="u6zsC0zCyDXQe2xTLqWm-123" value="&lt;span style=&quot;color: rgb(0, 0, 0); font-family: Arial, sans-serif; font-size: 16px; font-style: normal; font-variant-ligatures: normal; font-variant-caps: normal; font-weight: 400; letter-spacing: normal; orphans: 2; text-align: start; text-indent: 0px; text-transform: none; widows: 2; word-spacing: 0px; -webkit-text-stroke-width: 0px; white-space: normal; text-decoration-thickness: initial; text-decoration-style: initial; text-decoration-color: initial; display: inline !important; float: none;&quot;&gt;manual testing&lt;/span&gt;" style="text;whiteSpace=wrap;html=1;" vertex="1" parent="1">
          <mxGeometry x="950" y="500" width="140" height="40" as="geometry" />
        </mxCell>
        <mxCell id="u6zsC0zCyDXQe2xTLqWm-124" value="&lt;span style=&quot;color: rgb(0, 0, 0); font-family: Arial, sans-serif; font-size: 16px; font-style: normal; font-variant-ligatures: normal; font-variant-caps: normal; font-weight: 400; letter-spacing: normal; orphans: 2; text-align: start; text-indent: 0px; text-transform: none; widows: 2; word-spacing: 0px; -webkit-text-stroke-width: 0px; white-space: normal; text-decoration-thickness: initial; text-decoration-style: initial; text-decoration-color: initial; display: inline !important; float: none;&quot;&gt;automated testing&lt;/span&gt;" style="text;whiteSpace=wrap;html=1;" vertex="1" parent="1">
          <mxGeometry x="920" y="580" width="160" height="40" as="geometry" />
        </mxCell>
        <mxCell id="u6zsC0zCyDXQe2xTLqWm-125" value="&lt;span style=&quot;color: rgb(0, 0, 0); font-family: Arial, sans-serif; font-size: 16px; font-style: normal; font-variant-ligatures: normal; font-variant-caps: normal; font-weight: 400; letter-spacing: normal; orphans: 2; text-align: start; text-indent: 0px; text-transform: none; widows: 2; word-spacing: 0px; -webkit-text-stroke-width: 0px; white-space: normal; text-decoration-thickness: initial; text-decoration-style: initial; text-decoration-color: initial; display: inline !important; float: none;&quot;&gt;semiautomated testing&lt;/span&gt;" style="text;whiteSpace=wrap;html=1;" vertex="1" parent="1">
          <mxGeometry x="885" y="540" width="190" height="40" as="geometry" />
        </mxCell>
        <mxCell id="u6zsC0zCyDXQe2xTLqWm-126" value="&lt;span style=&quot;color: rgb(0, 0, 0); font-family: Arial, sans-serif; font-size: 16px; font-style: normal; font-variant-ligatures: normal; font-variant-caps: normal; font-weight: 400; letter-spacing: normal; orphans: 2; text-align: start; text-indent: 0px; text-transform: none; widows: 2; word-spacing: 0px; -webkit-text-stroke-width: 0px; white-space: normal; text-decoration-thickness: initial; text-decoration-style: initial; text-decoration-color: initial; display: inline !important; float: none;&quot;&gt;component/unit testing&lt;/span&gt;" style="text;whiteSpace=wrap;html=1;" vertex="1" parent="1">
          <mxGeometry x="965" y="760" width="190" height="40" as="geometry" />
        </mxCell>
        <mxCell id="u6zsC0zCyDXQe2xTLqWm-127" value="&lt;span style=&quot;color: rgb(0, 0, 0); font-family: Arial, sans-serif; font-size: 16px; font-style: normal; font-variant-ligatures: normal; font-variant-caps: normal; font-weight: 400; letter-spacing: normal; orphans: 2; text-align: start; text-indent: 0px; text-transform: none; widows: 2; word-spacing: 0px; -webkit-text-stroke-width: 0px; white-space: normal; text-decoration-thickness: initial; text-decoration-style: initial; text-decoration-color: initial; display: inline !important; float: none;&quot;&gt;integration testing&lt;/span&gt;" style="text;whiteSpace=wrap;html=1;" vertex="1" parent="1">
          <mxGeometry x="980" y="810" width="160" height="40" as="geometry" />
        </mxCell>
        <mxCell id="u6zsC0zCyDXQe2xTLqWm-128" value="&lt;span style=&quot;color: rgb(0, 0, 0); font-family: Arial, sans-serif; font-size: 16px; font-style: normal; font-variant-ligatures: normal; font-variant-caps: normal; font-weight: 400; letter-spacing: normal; orphans: 2; text-align: start; text-indent: 0px; text-transform: none; widows: 2; word-spacing: 0px; -webkit-text-stroke-width: 0px; white-space: normal; text-decoration-thickness: initial; text-decoration-style: initial; text-decoration-color: initial; display: inline !important; float: none;&quot;&gt;system/end-to-end testing&lt;/span&gt;" style="text;whiteSpace=wrap;html=1;" vertex="1" parent="1">
          <mxGeometry x="940" y="860" width="220" height="40" as="geometry" />
        </mxCell>
        <mxCell id="u6zsC0zCyDXQe2xTLqWm-129" value="&lt;span style=&quot;color: rgb(0, 0, 0); font-family: Arial, sans-serif; font-size: 16px; font-style: normal; font-variant-ligatures: normal; font-variant-caps: normal; font-weight: 400; letter-spacing: normal; orphans: 2; text-align: start; text-indent: 0px; text-transform: none; widows: 2; word-spacing: 0px; -webkit-text-stroke-width: 0px; white-space: normal; text-decoration-thickness: initial; text-decoration-style: initial; text-decoration-color: initial; display: inline !important; float: none;&quot;&gt;alpha testing&lt;/span&gt;" style="text;whiteSpace=wrap;html=1;" vertex="1" parent="1">
          <mxGeometry x="950" y="640" width="120" height="40" as="geometry" />
        </mxCell>
        <mxCell id="u6zsC0zCyDXQe2xTLqWm-130" value="&lt;span style=&quot;color: rgb(0, 0, 0); font-family: Arial, sans-serif; font-size: 16px; font-style: normal; font-variant-ligatures: normal; font-variant-caps: normal; font-weight: 400; letter-spacing: normal; orphans: 2; text-align: start; text-indent: 0px; text-transform: none; widows: 2; word-spacing: 0px; -webkit-text-stroke-width: 0px; white-space: normal; text-decoration-thickness: initial; text-decoration-style: initial; text-decoration-color: initial; display: inline !important; float: none;&quot;&gt;beta testing&lt;/span&gt;" style="text;whiteSpace=wrap;html=1;" vertex="1" parent="1">
          <mxGeometry x="950" y="695" width="120" height="40" as="geometry" />
        </mxCell>
        <mxCell id="u6zsC0zCyDXQe2xTLqWm-131" value="&lt;span style=&quot;color: rgb(0, 0, 0); font-family: Arial, sans-serif; font-size: 16px; font-style: normal; font-variant-ligatures: normal; font-variant-caps: normal; font-weight: 400; letter-spacing: normal; orphans: 2; text-align: start; text-indent: 0px; text-transform: none; widows: 2; word-spacing: 0px; -webkit-text-stroke-width: 0px; white-space: normal; text-decoration-thickness: initial; text-decoration-style: initial; text-decoration-color: initial; display: inline !important; float: none;&quot;&gt;positive testing&lt;/span&gt;" style="text;whiteSpace=wrap;html=1;" vertex="1" parent="1">
          <mxGeometry x="930" y="390" width="140" height="40" as="geometry" />
        </mxCell>
        <mxCell id="u6zsC0zCyDXQe2xTLqWm-132" value="&lt;span style=&quot;color: rgb(0, 0, 0); font-family: Arial, sans-serif; font-size: 16px; font-style: normal; font-variant-ligatures: normal; font-variant-caps: normal; font-weight: 400; letter-spacing: normal; orphans: 2; text-align: start; text-indent: 0px; text-transform: none; widows: 2; word-spacing: 0px; -webkit-text-stroke-width: 0px; white-space: normal; text-decoration-thickness: initial; text-decoration-style: initial; text-decoration-color: initial; display: inline !important; float: none;&quot;&gt;negative testing&lt;/span&gt;" style="text;whiteSpace=wrap;html=1;" vertex="1" parent="1">
          <mxGeometry x="930" y="440" width="150" height="40" as="geometry" />
        </mxCell>
        <mxCell id="u6zsC0zCyDXQe2xTLqWm-133" value="&lt;span style=&quot;color: rgb(0, 0, 0); font-family: Arial, sans-serif; font-size: 16px; font-style: normal; font-variant-ligatures: normal; font-variant-caps: normal; font-weight: 400; letter-spacing: normal; orphans: 2; text-align: start; text-indent: 0px; text-transform: none; widows: 2; word-spacing: 0px; -webkit-text-stroke-width: 0px; white-space: normal; text-decoration-thickness: initial; text-decoration-style: initial; text-decoration-color: initial; display: inline !important; float: none;&quot;&gt;stress testing&lt;/span&gt;" style="text;whiteSpace=wrap;html=1;" vertex="1" parent="1">
          <mxGeometry x="1810" y="1060" width="130" height="40" as="geometry" />
        </mxCell>
        <mxCell id="u6zsC0zCyDXQe2xTLqWm-134" value="&lt;span style=&quot;color: rgb(0, 0, 0); font-family: Arial, sans-serif; font-size: 16px; font-style: normal; font-variant-ligatures: normal; font-variant-caps: normal; font-weight: 400; letter-spacing: normal; orphans: 2; text-align: start; text-indent: 0px; text-transform: none; widows: 2; word-spacing: 0px; -webkit-text-stroke-width: 0px; white-space: normal; text-decoration-thickness: initial; text-decoration-style: initial; text-decoration-color: initial; display: inline !important; float: none;&quot;&gt;stability&lt;span&gt;&amp;nbsp;&lt;/span&gt;&lt;/span&gt;&lt;span style=&quot;font-family: Arial, sans-serif; font-size: 16px;&quot;&gt;testing&lt;/span&gt;" style="text;whiteSpace=wrap;html=1;" vertex="1" parent="1">
          <mxGeometry x="1810" y="1020" width="90" height="40" as="geometry" />
        </mxCell>
        <mxCell id="u6zsC0zCyDXQe2xTLqWm-135" value="&lt;span style=&quot;color: rgb(0, 0, 0); font-family: Arial, sans-serif; font-size: 16px; font-style: normal; font-variant-ligatures: normal; font-variant-caps: normal; font-weight: 400; letter-spacing: normal; orphans: 2; text-align: start; text-indent: 0px; text-transform: none; widows: 2; word-spacing: 0px; -webkit-text-stroke-width: 0px; white-space: normal; text-decoration-thickness: initial; text-decoration-style: initial; text-decoration-color: initial; display: inline !important; float: none;&quot;&gt;localization testing&lt;/span&gt;" style="text;whiteSpace=wrap;html=1;" vertex="1" parent="1">
          <mxGeometry x="1735" y="900" width="160" height="40" as="geometry" />
        </mxCell>
        <mxCell id="u6zsC0zCyDXQe2xTLqWm-136" value="&lt;span style=&quot;color: rgb(0, 0, 0); font-family: Arial, sans-serif; font-size: 16px; font-style: normal; font-variant-ligatures: normal; font-variant-caps: normal; font-weight: 400; letter-spacing: normal; orphans: 2; text-align: start; text-indent: 0px; text-transform: none; widows: 2; word-spacing: 0px; -webkit-text-stroke-width: 0px; white-space: normal; text-decoration-thickness: initial; text-decoration-style: initial; text-decoration-color: initial; display: inline !important; float: none;&quot;&gt;compatibility testing&lt;/span&gt;" style="text;whiteSpace=wrap;html=1;" vertex="1" parent="1">
          <mxGeometry x="1730" y="780" width="170" height="40" as="geometry" />
        </mxCell>
        <mxCell id="u6zsC0zCyDXQe2xTLqWm-137" value="&lt;span style=&quot;color: rgb(0, 0, 0); font-family: Arial, sans-serif; font-size: 16px; font-style: normal; font-variant-ligatures: normal; font-variant-caps: normal; font-weight: 400; letter-spacing: normal; orphans: 2; text-align: start; text-indent: 0px; text-transform: none; widows: 2; word-spacing: 0px; -webkit-text-stroke-width: 0px; white-space: normal; text-decoration-thickness: initial; text-decoration-style: initial; text-decoration-color: initial; display: inline !important; float: none;&quot;&gt;functional testing&lt;/span&gt;" style="text;whiteSpace=wrap;html=1;" vertex="1" parent="1">
          <mxGeometry x="1620" y="490" width="150" height="40" as="geometry" />
        </mxCell>
        <mxCell id="u6zsC0zCyDXQe2xTLqWm-138" value="&lt;span style=&quot;color: rgb(0, 0, 0); font-family: Arial, sans-serif; font-size: 16px; font-style: normal; font-variant-ligatures: normal; font-variant-caps: normal; font-weight: 400; letter-spacing: normal; orphans: 2; text-align: start; text-indent: 0px; text-transform: none; widows: 2; word-spacing: 0px; -webkit-text-stroke-width: 0px; white-space: normal; text-decoration-thickness: initial; text-decoration-style: initial; text-decoration-color: initial; display: inline !important; float: none;&quot;&gt;performance&amp;nbsp;&lt;/span&gt;&lt;div&gt;&lt;span style=&quot;color: rgb(0, 0, 0); font-family: Arial, sans-serif; font-size: 16px; font-style: normal; font-variant-ligatures: normal; font-variant-caps: normal; font-weight: 400; letter-spacing: normal; orphans: 2; text-align: start; text-indent: 0px; text-transform: none; widows: 2; word-spacing: 0px; -webkit-text-stroke-width: 0px; white-space: normal; text-decoration-thickness: initial; text-decoration-style: initial; text-decoration-color: initial; display: inline !important; float: none;&quot;&gt;testing&lt;/span&gt;&lt;/div&gt;" style="text;whiteSpace=wrap;html=1;" vertex="1" parent="1">
          <mxGeometry x="1700" y="1050" width="170" height="40" as="geometry" />
        </mxCell>
        <mxCell id="u6zsC0zCyDXQe2xTLqWm-139" value="&lt;span style=&quot;color: rgb(0, 0, 0); font-family: Arial, sans-serif; font-size: 16px; font-style: normal; font-variant-ligatures: normal; font-variant-caps: normal; font-weight: 400; letter-spacing: normal; orphans: 2; text-align: start; text-indent: 0px; text-transform: none; widows: 2; word-spacing: 0px; -webkit-text-stroke-width: 0px; white-space: normal; text-decoration-thickness: initial; text-decoration-style: initial; text-decoration-color: initial; display: inline !important; float: none;&quot;&gt;load testing&lt;/span&gt;" style="text;whiteSpace=wrap;html=1;" vertex="1" parent="1">
          <mxGeometry x="1805" y="980" width="120" height="40" as="geometry" />
        </mxCell>
        <mxCell id="u6zsC0zCyDXQe2xTLqWm-140" value="&lt;span style=&quot;color: rgb(0, 0, 0); font-family: Arial, sans-serif; font-size: 16px; font-style: normal; font-variant-ligatures: normal; font-variant-caps: normal; font-weight: 400; letter-spacing: normal; orphans: 2; text-align: start; text-indent: 0px; text-transform: none; widows: 2; word-spacing: 0px; -webkit-text-stroke-width: 0px; white-space: normal; text-decoration-thickness: initial; text-decoration-style: initial; text-decoration-color: initial; display: inline !important; float: none;&quot;&gt;UI testing&lt;/span&gt;" style="text;whiteSpace=wrap;html=1;" vertex="1" parent="1">
          <mxGeometry x="1730" y="560" width="100" height="40" as="geometry" />
        </mxCell>
        <mxCell id="u6zsC0zCyDXQe2xTLqWm-141" value="&lt;span style=&quot;color: rgb(0, 0, 0); font-family: Arial, sans-serif; font-size: 16px; font-style: normal; font-variant-ligatures: normal; font-variant-caps: normal; font-weight: 400; letter-spacing: normal; orphans: 2; text-align: start; text-indent: 0px; text-transform: none; widows: 2; word-spacing: 0px; -webkit-text-stroke-width: 0px; white-space: normal; text-decoration-thickness: initial; text-decoration-style: initial; text-decoration-color: initial; display: inline !important; float: none;&quot;&gt;security testing&lt;/span&gt;" style="text;whiteSpace=wrap;html=1;" vertex="1" parent="1">
          <mxGeometry x="1730" y="680" width="140" height="40" as="geometry" />
        </mxCell>
        <mxCell id="u6zsC0zCyDXQe2xTLqWm-142" value="&lt;span style=&quot;color: rgb(0, 0, 0); font-family: Arial, sans-serif; font-size: 16px; font-style: normal; font-variant-ligatures: normal; font-variant-caps: normal; font-weight: 400; letter-spacing: normal; orphans: 2; text-align: start; text-indent: 0px; text-transform: none; widows: 2; word-spacing: 0px; -webkit-text-stroke-width: 0px; white-space: normal; text-decoration-thickness: initial; text-decoration-style: initial; text-decoration-color: initial; display: inline !important; float: none;&quot;&gt;usability testing&lt;/span&gt;" style="text;whiteSpace=wrap;html=1;" vertex="1" parent="1">
          <mxGeometry x="1730" y="620" width="140" height="40" as="geometry" />
        </mxCell>
        <mxCell id="u6zsC0zCyDXQe2xTLqWm-143" value="&lt;span style=&quot;color: rgb(0, 0, 0); font-family: Arial, sans-serif; font-size: 16px; font-style: normal; font-variant-ligatures: normal; font-variant-caps: normal; font-weight: 400; letter-spacing: normal; orphans: 2; text-align: start; text-indent: 0px; text-transform: none; widows: 2; word-spacing: 0px; -webkit-text-stroke-width: 0px; white-space: normal; text-decoration-thickness: initial; text-decoration-style: initial; text-decoration-color: initial; display: inline !important; float: none;&quot;&gt;non-functional testing&lt;/span&gt;" style="text;whiteSpace=wrap;html=1;" vertex="1" parent="1">
          <mxGeometry x="1608" y="610" width="150" height="40" as="geometry" />
        </mxCell>
        <mxCell id="u6zsC0zCyDXQe2xTLqWm-144" value="&lt;span style=&quot;color: rgb(58, 58, 58); font-family: Inter, sans-serif; font-size: 16px; text-align: start; background-color: rgb(255, 255, 255);&quot;&gt;exploratory testing&lt;/span&gt;" style="text;html=1;align=center;verticalAlign=middle;whiteSpace=wrap;rounded=0;" vertex="1" parent="1">
          <mxGeometry x="1035" y="980" width="160" height="40" as="geometry" />
        </mxCell>
        <mxCell id="u6zsC0zCyDXQe2xTLqWm-145" value="&lt;span style=&quot;color: rgb(58, 58, 58); font-family: Inter, sans-serif; font-size: 16px; font-style: normal; font-variant-ligatures: normal; font-variant-caps: normal; font-weight: 400; letter-spacing: normal; orphans: 2; text-align: start; text-indent: 0px; text-transform: none; widows: 2; word-spacing: 0px; -webkit-text-stroke-width: 0px; white-space: normal; background-color: rgb(255, 255, 255); text-decoration-thickness: initial; text-decoration-style: initial; text-decoration-color: initial; display: inline !important; float: none;&quot;&gt;ad hoc testing&lt;/span&gt;" style="text;whiteSpace=wrap;html=1;" vertex="1" parent="1">
          <mxGeometry x="1120" y="1030" width="130" height="40" as="geometry" />
        </mxCell>
        <mxCell id="u6zsC0zCyDXQe2xTLqWm-146" value="&lt;span style=&quot;color: rgb(58, 58, 58); font-family: Inter, sans-serif; font-size: 16px; font-style: normal; font-variant-ligatures: normal; font-variant-caps: normal; font-weight: 400; letter-spacing: normal; orphans: 2; text-align: start; text-indent: 0px; text-transform: none; widows: 2; word-spacing: 0px; -webkit-text-stroke-width: 0px; white-space: normal; background-color: rgb(255, 255, 255); text-decoration-thickness: initial; text-decoration-style: initial; text-decoration-color: initial; display: inline !important; float: none;&quot;&gt;scripted testing&lt;/span&gt;" style="text;whiteSpace=wrap;html=1;" vertex="1" parent="1">
          <mxGeometry x="1045" y="930" width="140" height="40" as="geometry" />
        </mxCell>
        <mxCell id="u6zsC0zCyDXQe2xTLqWm-147" value="&lt;span style=&quot;box-sizing: border-box; border: 0px; font-style: normal; margin: 0px; outline: 0px; padding: 0px; vertical-align: baseline; color: rgb(58, 58, 58); font-family: Inter, sans-serif; font-variant-ligatures: normal; font-variant-caps: normal; letter-spacing: normal; orphans: 2; text-align: start; text-indent: 0px; text-transform: none; widows: 2; word-spacing: 0px; -webkit-text-stroke-width: 0px; white-space: normal; background-color: rgb(255, 255, 255); text-decoration-thickness: initial; text-decoration-style: initial; text-decoration-color: initial;&quot;&gt;&lt;font style=&quot;font-size: 14px;&quot;&gt;static testing&lt;/font&gt;&lt;/span&gt;&lt;div&gt;&lt;span style=&quot;box-sizing: border-box; border: 0px; font-style: normal; margin: 0px; outline: 0px; padding: 0px; vertical-align: baseline; color: rgb(58, 58, 58); font-family: Inter, sans-serif; font-variant-ligatures: normal; font-variant-caps: normal; letter-spacing: normal; orphans: 2; text-align: start; text-indent: 0px; text-transform: none; widows: 2; word-spacing: 0px; -webkit-text-stroke-width: 0px; white-space: normal; background-color: rgb(255, 255, 255); text-decoration-thickness: initial; text-decoration-style: initial; text-decoration-color: initial;&quot;&gt;&lt;font style=&quot;font-size: 14px;&quot;&gt;(verification)&lt;/font&gt;&lt;/span&gt;&lt;/div&gt;" style="text;whiteSpace=wrap;html=1;" vertex="1" parent="1">
          <mxGeometry x="1527.5" y="200" width="85" height="40" as="geometry" />
        </mxCell>
        <mxCell id="u6zsC0zCyDXQe2xTLqWm-148" value="&lt;span style=&quot;color: rgb(58, 58, 58); font-family: Inter, sans-serif; font-style: normal; font-variant-ligatures: normal; font-variant-caps: normal; font-weight: 400; letter-spacing: normal; orphans: 2; text-align: start; text-indent: 0px; text-transform: none; widows: 2; word-spacing: 0px; -webkit-text-stroke-width: 0px; white-space: normal; background-color: rgb(255, 255, 255); text-decoration-thickness: initial; text-decoration-style: initial; text-decoration-color: initial; float: none; display: inline !important;&quot;&gt;&lt;font style=&quot;font-size: 14px;&quot;&gt;dynamic testing (validation)&lt;/font&gt;&lt;/span&gt;" style="text;whiteSpace=wrap;html=1;" vertex="1" parent="1">
          <mxGeometry x="1520" y="340" width="100" height="40" as="geometry" />
        </mxCell>
        <mxCell id="u6zsC0zCyDXQe2xTLqWm-149" value="&lt;span style=&quot;color: rgb(58, 58, 58); font-family: Inter, sans-serif; font-style: normal; font-variant-ligatures: normal; font-variant-caps: normal; font-weight: 400; letter-spacing: normal; orphans: 2; text-align: start; text-indent: 0px; text-transform: none; widows: 2; word-spacing: 0px; -webkit-text-stroke-width: 0px; white-space: normal; background-color: rgb(255, 255, 255); text-decoration-thickness: initial; text-decoration-style: initial; text-decoration-color: initial; float: none; display: inline !important;&quot;&gt;&lt;font style=&quot;font-size: 14px;&quot;&gt;Static Analysis&lt;/font&gt;&lt;/span&gt;" style="text;whiteSpace=wrap;html=1;" vertex="1" parent="1">
          <mxGeometry x="1620" y="200" width="140" height="40" as="geometry" />
        </mxCell>
        <mxCell id="u6zsC0zCyDXQe2xTLqWm-150" value="&lt;span style=&quot;box-sizing: border-box; border: 0px; font-style: normal; margin: 0px; outline: 0px; padding: 0px; vertical-align: baseline; color: rgb(58, 58, 58); font-family: Inter, sans-serif; font-variant-ligatures: normal; font-variant-caps: normal; letter-spacing: normal; orphans: 2; text-align: start; text-indent: 0px; text-transform: none; widows: 2; word-spacing: 0px; -webkit-text-stroke-width: 0px; white-space: normal; background-color: rgb(255, 255, 255); text-decoration-thickness: initial; text-decoration-style: initial; text-decoration-color: initial;&quot;&gt;&lt;font style=&quot;font-size: 14px;&quot;&gt;Review&lt;/font&gt;&lt;/span&gt;" style="text;whiteSpace=wrap;html=1;" vertex="1" parent="1">
          <mxGeometry x="1620" y="280" width="90" height="40" as="geometry" />
        </mxCell>
        <mxCell id="u6zsC0zCyDXQe2xTLqWm-151" value="&lt;span style=&quot;color: rgb(0, 0, 0); font-family: Arial, sans-serif; font-size: 16px; font-style: normal; font-variant-ligatures: normal; font-variant-caps: normal; font-weight: 400; letter-spacing: normal; orphans: 2; text-align: start; text-indent: 0px; text-transform: none; widows: 2; word-spacing: 0px; -webkit-text-stroke-width: 0px; white-space: normal; text-decoration-thickness: initial; text-decoration-style: initial; text-decoration-color: initial; display: inline !important; float: none;&quot;&gt;volume testing&lt;/span&gt;" style="text;whiteSpace=wrap;html=1;" vertex="1" parent="1">
          <mxGeometry x="1810" y="1100" width="130" height="40" as="geometry" />
        </mxCell>
        <mxCell id="u6zsC0zCyDXQe2xTLqWm-152" value="&lt;span style=&quot;color: rgb(0, 0, 0); font-family: Arial, sans-serif; font-size: 16px; font-style: normal; font-variant-ligatures: normal; font-variant-caps: normal; font-weight: 400; letter-spacing: normal; orphans: 2; text-align: start; text-indent: 0px; text-transform: none; widows: 2; word-spacing: 0px; -webkit-text-stroke-width: 0px; white-space: normal; text-decoration-thickness: initial; text-decoration-style: initial; text-decoration-color: initial; display: inline !important; float: none;&quot;&gt;scalability testing&lt;/span&gt;" style="text;whiteSpace=wrap;html=1;" vertex="1" parent="1">
          <mxGeometry x="1810" y="1140" width="130" height="40" as="geometry" />
        </mxCell>
        <mxCell id="u6zsC0zCyDXQe2xTLqWm-153" value="&lt;span style=&quot;color: rgb(0, 0, 0); font-family: Arial, sans-serif; font-size: 16px; font-style: normal; font-variant-ligatures: normal; font-variant-caps: normal; font-weight: 400; letter-spacing: normal; orphans: 2; text-align: start; text-indent: 0px; text-transform: none; widows: 2; word-spacing: 0px; -webkit-text-stroke-width: 0px; white-space: normal; text-decoration-thickness: initial; text-decoration-style: initial; text-decoration-color: initial; display: inline !important; float: none;&quot;&gt;configuration testing&lt;/span&gt;" style="text;whiteSpace=wrap;html=1;" vertex="1" parent="1">
          <mxGeometry x="1730" y="730" width="230" height="40" as="geometry" />
        </mxCell>
        <mxCell id="u6zsC0zCyDXQe2xTLqWm-154" value="&lt;span style=&quot;color: rgb(0, 0, 0); font-family: Arial, sans-serif; font-size: 16px; font-style: normal; font-variant-ligatures: normal; font-variant-caps: normal; font-weight: 400; letter-spacing: normal; orphans: 2; text-align: start; text-indent: 0px; text-transform: none; widows: 2; word-spacing: 0px; -webkit-text-stroke-width: 0px; white-space: normal; text-decoration-thickness: initial; text-decoration-style: initial; text-decoration-color: initial; display: inline !important; float: none;&quot;&gt;reliability testing&lt;/span&gt;" style="text;whiteSpace=wrap;html=1;" vertex="1" parent="1">
          <mxGeometry x="1730" y="830" width="170" height="40" as="geometry" />
        </mxCell>
        <mxCell id="u6zsC0zCyDXQe2xTLqWm-155" value="Comprehensive testing" style="text;html=1;align=center;verticalAlign=middle;whiteSpace=wrap;rounded=0;" vertex="1" parent="1">
          <mxGeometry x="1175" y="1130" width="60" height="30" as="geometry" />
        </mxCell>
        <mxCell id="u6zsC0zCyDXQe2xTLqWm-156" value="Input testing" style="text;html=1;align=center;verticalAlign=middle;whiteSpace=wrap;rounded=0;" vertex="1" parent="1">
          <mxGeometry x="1250" y="1130" width="60" height="30" as="geometry" />
        </mxCell>
        <mxCell id="u6zsC0zCyDXQe2xTLqWm-157" value="Main testing" style="text;html=1;align=center;verticalAlign=middle;whiteSpace=wrap;rounded=0;" vertex="1" parent="1">
          <mxGeometry x="1310" y="1130" width="60" height="30" as="geometry" />
        </mxCell>
        <mxCell id="u6zsC0zCyDXQe2xTLqWm-158" value="Retesting" style="text;html=1;align=center;verticalAlign=middle;whiteSpace=wrap;rounded=0;" vertex="1" parent="1">
          <mxGeometry x="1380" y="1130" width="60" height="30" as="geometry" />
        </mxCell>
        <mxCell id="u6zsC0zCyDXQe2xTLqWm-159" value="Regression&amp;nbsp;&lt;div&gt;testing&lt;/div&gt;" style="text;html=1;align=center;verticalAlign=middle;whiteSpace=wrap;rounded=0;" vertex="1" parent="1">
          <mxGeometry x="1444" y="1130" width="60" height="30" as="geometry" />
        </mxCell>
        <mxCell id="u6zsC0zCyDXQe2xTLqWm-160" value="Acceptance&amp;nbsp;&lt;div&gt;testing&lt;/div&gt;" style="text;html=1;align=center;verticalAlign=middle;whiteSpace=wrap;rounded=0;" vertex="1" parent="1">
          <mxGeometry x="1520" y="1130" width="60" height="30" as="geometry" />
        </mxCell>
        <mxCell id="u6zsC0zCyDXQe2xTLqWm-161" value="&lt;span style=&quot;color: rgb(0, 0, 0); font-family: Arial, sans-serif; font-size: 16px; font-style: normal; font-variant-ligatures: normal; font-variant-caps: normal; font-weight: 400; letter-spacing: normal; orphans: 2; text-align: start; text-indent: 0px; text-transform: none; widows: 2; word-spacing: 0px; -webkit-text-stroke-width: 0px; white-space: normal; text-decoration-thickness: initial; text-decoration-style: initial; text-decoration-color: initial; display: inline !important; float: none;&quot;&gt;Model-Based testing&lt;/span&gt;" style="text;whiteSpace=wrap;html=1;" vertex="1" parent="1">
          <mxGeometry x="1740" y="455" width="150" height="40" as="geometry" />
        </mxCell>
        <mxCell id="u6zsC0zCyDXQe2xTLqWm-162" value="&lt;span style=&quot;color: rgb(0, 0, 0); font-family: Arial, sans-serif; font-size: 16px; font-style: normal; font-variant-ligatures: normal; font-variant-caps: normal; font-weight: 400; letter-spacing: normal; orphans: 2; text-align: start; text-indent: 0px; text-transform: none; widows: 2; word-spacing: 0px; -webkit-text-stroke-width: 0px; white-space: normal; text-decoration-thickness: initial; text-decoration-style: initial; text-decoration-color: initial; display: inline !important; float: none;&quot;&gt;Requirements-Based testing&lt;/span&gt;" style="text;whiteSpace=wrap;html=1;" vertex="1" parent="1">
          <mxGeometry x="1740" y="370" width="300" height="20" as="geometry" />
        </mxCell>
        <mxCell id="u6zsC0zCyDXQe2xTLqWm-163" value="&lt;span style=&quot;color: rgb(0, 0, 0); font-family: Arial, sans-serif; font-size: 16px; font-style: normal; font-variant-ligatures: normal; font-variant-caps: normal; font-weight: 400; letter-spacing: normal; orphans: 2; text-align: start; text-indent: 0px; text-transform: none; widows: 2; word-spacing: 0px; -webkit-text-stroke-width: 0px; white-space: normal; text-decoration-thickness: initial; text-decoration-style: initial; text-decoration-color: initial; display: inline !important; float: none;&quot;&gt;User story testing&lt;/span&gt;" style="text;whiteSpace=wrap;html=1;" vertex="1" parent="1">
          <mxGeometry x="1745" y="410" width="150" height="40" as="geometry" />
        </mxCell>
      </root>
    </mxGraphModel>
  </diagram>
</mxfile>
